<mxfile host="app.diagrams.net" modified="2023-09-15T08:59:05.111Z" agent="Mozilla/5.0 (Windows NT 10.0; Win64; x64) AppleWebKit/537.36 (KHTML, like Gecko) Chrome/100.0.4896.75 Safari/537.36" version="21.2.3" etag="EhRCFoRhXiHAo37pwrAa" type="github">
  <diagram name="第 1 页" id="vPG4tOmfu8uFsgm3aAS6">
    <mxGraphModel>
      <root>
        <mxCell id="0" />
        <mxCell id="1" parent="0" />
      </root>
    </mxGraphModel>
  </diagram>
</mxfile>
